<?xml version="1.0" encoding="UTF-8"?>
<svg id="Layer_1" data-name="Layer 1" xmlns="http://www.w3.org/2000/svg" viewBox="0 0 200 200">
  <defs>
    <style>
      .cls-1 {
        fill: #ffbc1f;
      }
    </style>
  </defs>
  <path id="Icon_awesome-wpforms" data-name="Icon awesome-wpforms" class="cls-1" d="m166.4,46.39v107.22c.08,6.99-5.52,12.73-12.51,12.81-.1,0-.2,0-.31,0H46.41c-7.02.06-12.75-5.58-12.81-12.59,0-.08,0-.16,0-.25V46.38c-.08-6.99,5.52-12.72,12.52-12.8.1,0,.2,0,.3,0h107.22c6.99-.06,12.71,5.55,12.77,12.54,0,.09,0,.18,0,.27Zm-11.06,107.2V46.39c-.02-.94-.78-1.7-1.72-1.72h-2.76l-32.7,22.12-18.17-14.8-18.14,14.8-32.7-22.15h-2.75c-.94.02-1.7.78-1.73,1.72v107.22c.03.94.79,1.69,1.73,1.71h107.22c.95,0,1.72-.77,1.72-1.72h0Zm-77.22-74.35v10.97h-21.79v-10.97h21.79Zm0,22.06v11.05h-21.79v-11.06h21.79Zm3.29-43.67l16.01-12.96h-35.13l19.12,12.95h0Zm62.25,21.61v10.97h-58.1v-10.97h58.1Zm0,22.06v11.06h-58.1v-11.06h58.1Zm-25.08-43.67l19.12-12.95h-35.1l15.98,12.95Zm25.08,65.79v11.06h-29.47v-11.06h29.47Z"/>
</svg>